<svg version="1.2" xmlns="http://www.w3.org/2000/svg" viewBox="0 0 800 800" width="800" height="800">
	<title>Film Fill Icon</title>
	<style>
		.s0 { fill: #f49f43 } 
	</style>
	<path class="s0" d="m98.3 708.2h603.4c64.6 0 96.7-31.8 96.7-95.4v-425.6c0-63.6-32.1-95.4-96.7-95.4h-603.4c-63.9 0-96.7 31.8-96.7 95.4v425.6c0 63.6 32.4 95.4 96.7 95.4zm0.7-53.9c-28.1 0-43.5-14.7-43.5-44.2v-420.2c0-29.5 15.7-44.2 43.5-44.2h602c28.1 0 43.5 14.7 43.5 44.2v420.2c0 29.5-15.4 44.2-43.5 44.2zm1.3-430.9c0 7.3 5.7 13.4 14.8 13.4h31.1c8.4 0 14.1-6.1 14.1-13.4v-28.1c0-9.1-5.7-14.8-14.1-14.8h-31.1c-9.4 0-14.8 5.7-14.8 14.8zm539.8 0c0 7.3 5.3 13.3 14.4 13.3h31.1c8.4 0 14.1-6 14.1-13.3v-28.2c0-9-5.7-14.7-14.1-14.7h-31.1c-9.4 0-14.4 5.7-14.4 14.7zm-431.3 135.6c0 10.1 6.4 16.1 16.4 16.1h349.9c10.1 0 16.1-6 16.1-16.1v-160.7c0-10-6-16.1-16.1-16.1h-349.9c-10 0-16.4 6.1-16.4 16.1zm-108.5-40.2c0 7.7 5.7 13.8 14.8 13.8h31.1c8.4 0 14.1-6.1 14.1-13.8v-28.1c0-8.7-5.7-14.4-14.1-14.4h-31.1c-9.4 0-14.8 5.7-14.8 14.4zm539.8 0c0 7.7 5.3 13.7 14.4 13.7h31.1c8.4 0 14.1-6 14.1-13.7v-28.1c0-8.7-5.7-14.4-14.1-14.4h-31.1c-9.4 0-14.4 5.7-14.4 14.4zm-539.8 95.8c0 7.3 5.7 13.3 14.8 13.3h31.1c8.4 0 14.1-6 14.1-13.3v-28.5c0-8.7-5.7-14.4-14.1-14.4h-31.1c-9.4 0-14.8 5.7-14.8 14.4zm539.8 0c0 7.4 5.3 13.4 14.4 13.4h31.1c8.4 0 14.1-6 14.1-13.4v-28.5c0-8.7-5.7-14.4-14.1-14.4h-31.1c-9.4 0-14.4 5.7-14.4 14.4zm-431.3 186.9c0 10.3 6.4 16 16.4 16h349.9c10.1 0 16.1-5.7 16.1-16v-159.7c0-10.1-6-15.8-16.1-15.8h-349.9c-10 0-16.4 5.7-16.4 15.8zm-108.5-91.5c0 7.4 5.7 13.8 14.8 13.8h31.1c8.4 0 14.1-6.4 14.1-13.8v-28.1c0-9-5.7-14.7-14.1-14.7h-31.1c-9.4 0-14.8 5.7-14.8 14.7zm539.8 0c0 7.4 5.3 13.8 14.4 13.8h31.1c8.4 0 14.1-6.4 14.1-13.8v-28.1c0-9-5.7-14.7-14.1-14.7h-31.1c-9.4 0-14.4 5.7-14.4 14.7zm-539.8 95.4c0 7.7 5.7 13.8 14.8 13.8h31.1c8.4 0 14.1-6.1 14.1-13.8v-28.4c0-8.4-5.7-14.1-14.1-14.1h-31.1c-9.4 0-14.8 5.7-14.8 14.1zm539.8 0c0 7.7 5.3 13.7 14.4 13.7h31.1c8.4 0 14.1-6 14.1-13.7v-28.5c0-8.4-5.7-14.1-14.1-14.1h-31.1c-9.4 0-14.4 5.7-14.4 14.1z"/>
</svg>