<svg version="1.2" xmlns="http://www.w3.org/2000/svg" viewBox="0 0 800 800" width="800" height="800">
	<title>Video Frame Cut 2</title>
	<style>
		.s0 { opacity: .5;fill: #f49f43 } 
		.s1 { fill: #f49f43 } 
	</style>
	<path class="s0" d="m258.3 133.3v533.4h170.3 113.1v-533.4h-113.1z"/>
	<path fill-rule="evenodd" class="s1" d="m362.1 66.7h75.8c12.8 0 20.9 13.8 14.5 24.9l-23.8 41.7h-57.2l-23.8-41.7c-6.4-11.1 1.7-24.9 14.5-24.9zm66.5 600l23.8 41.7c6.4 11.1-1.7 24.9-14.5 24.9h-75.8c-12.8 0-20.9-13.8-14.5-24.9l23.8-41.7zm-332.6-504.1c22.5-22.5 55.5-27.7 112.4-28.9v141.3h-141.3c1.2-56.8 6.4-89.9 28.9-112.4zm-29.3 312.4v-150h141.7v150zm141.7 50v141.3c-56.9-1.2-89.9-6.4-112.4-28.9-22.5-22.5-27.7-55.6-28.9-112.4zm495.7-362.4c22.5 22.5 27.7 55.6 28.9 112.4h-141.3v-141.3c56.8 1.2 89.9 6.4 112.4 28.9zm-112.4 162.4h141.7v150h-141.7zm112.4 312.4c-22.5 22.5-55.6 27.7-112.4 28.9v-141.3h141.3c-1.2 56.8-6.4 89.9-28.9 112.4z"/>
	<path class="s1" d="m414.5 158l14.1-24.7h-57.2l14.1 24.7c6.4 11.2 22.6 11.2 29 0z"/>
	<path class="s1" d="m400 225c13.8 0 25 11.2 25 25v33.3c0 13.8-11.2 25-25 25-13.8 0-25-11.2-25-25v-33.3c0-13.8 11.2-25 25-25z"/>
	<path class="s1" d="m400 358.3c13.8 0 25 11.2 25 25v33.4c0 13.8-11.2 25-25 25-13.8 0-25-11.2-25-25v-33.4c0-13.8 11.2-25 25-25z"/>
	<path class="s1" d="m400 491.7c13.8 0 25 11.2 25 25v33.3c0 13.8-11.2 25-25 25-13.8 0-25-11.2-25-25v-33.3c0-13.8 11.2-25 25-25z"/>
	<path class="s1" d="m428.6 666.7l-14.1-24.7c-6.4-11.2-22.6-11.2-29 0l-14.1 24.7z"/>
</svg>